<svg width="13" height="13" viewBox="0 0 13 13" fill="none" xmlns="http://www.w3.org/2000/svg">
<path d="M11.905 4.03666V0.637451M11.905 0.637451H8.50583M11.905 0.637451L8.50583 4.03666M11.905 9.0902V10.7898C11.9056 10.9476 11.8733 11.1038 11.8101 11.2483C11.7469 11.3929 11.6542 11.5227 11.5379 11.6293C11.4217 11.736 11.2844 11.8172 11.1349 11.8678C10.9855 11.9183 10.8271 11.9371 10.67 11.9229C8.92664 11.7335 7.25205 11.1377 5.78076 10.1836C4.41192 9.31379 3.25138 8.15325 2.38156 6.78441C1.4241 5.30643 0.828255 3.62371 0.642294 1.87255C0.628136 1.71589 0.646755 1.55799 0.696965 1.40891C0.747174 1.25984 0.827874 1.12285 0.933927 1.00667C1.03998 0.890494 1.16906 0.797671 1.31295 0.734113C1.45684 0.670555 1.61239 0.637654 1.7697 0.637506H3.4693C3.74424 0.6348 4.01079 0.732162 4.21926 0.911444C4.42773 1.09073 4.56389 1.3397 4.60237 1.61195C4.67411 2.15586 4.80715 2.68991 4.99895 3.20391C5.07517 3.40668 5.09167 3.62706 5.04648 3.83893C5.0013 4.05079 4.89633 4.24526 4.744 4.3993L4.02451 5.1188C4.831 6.53714 6.00537 7.71151 7.42371 8.518L8.14321 7.79851C8.29725 7.64618 8.49172 7.54121 8.70358 7.49603C8.91545 7.45084 9.13582 7.46734 9.3386 7.54356C9.8526 7.73536 10.3867 7.8684 10.9306 7.94014C11.2058 7.97896 11.4571 8.11758 11.6368 8.32963C11.8164 8.54168 11.9119 8.81236 11.905 9.0902Z" stroke="#EFE6F2" stroke-width="1.2747" stroke-linecap="round" stroke-linejoin="round"/>
</svg>
