<svg width="24" height="24" viewBox="0 0 24 24" fill="none" xmlns="http://www.w3.org/2000/svg">
<path d="M12.0002 6V12L16.0002 14M16.0003 21.1601C14.2029 21.9453 12.2142 22.1846 10.2818 21.8481C8.34943 21.5117 6.55865 20.6144 5.13237 19.2679C3.70608 17.9214 2.70727 16.1852 2.26024 14.2754C1.81321 12.3656 1.93771 10.3664 2.61825 8.52681C3.29878 6.6872 4.50529 5.08834 6.08762 3.92923C7.66995 2.77011 9.55822 2.10193 11.5174 2.00785C13.4766 1.91377 15.4202 2.39794 17.1063 3.40009C18.7924 4.40225 20.1466 5.87815 21.0003 7.64409M20.0002 11.5V17.5M20.0002 21.5H20.0102" stroke="white" stroke-width="1.5" stroke-linecap="round" stroke-linejoin="round"/>
</svg>
