<svg width="253" height="154" viewBox="0 0 253 154" fill="none" xmlns="http://www.w3.org/2000/svg">
<g clip-path="url(#clip0_1046_3360)">
<g filter="url(#filter0_fn_1046_3360)">
<path d="M4.81226 163.109C4.81226 163.109 123.214 134.364 122.049 40.5987C122.04 40.2618 122.035 39.9298 122.032 39.6026C122.039 39.9354 122.045 40.2674 122.049 40.5987C122.859 72.6849 150.053 147.773 243.023 160.646L4.81226 163.109Z" fill="url(#paint0_linear_1046_3360)"/>
</g>
<path d="M21.0076 49.441C34.5547 48.7386 64.8821 47.8726 77.8154 50.0267C93.9819 52.7193 99.2586 60.2123 102.29 63.7243C105.322 67.237 121.884 89.401 123.793 92.3276C125.702 95.2546 150.908 129.051 163.183 144.827C166.958 149.678 168.334 154.838 168.518 159.511C168.822 162.089 168.422 165.051 167.634 168.053C167.063 170.429 166.331 172.372 165.768 173.665C164.041 178.033 161.888 182.002 160.369 184.408C156.624 191.451 138.344 217.561 131.002 224.761C123.661 231.96 118.766 226.267 116.319 224.258C114.361 222.651 106.939 213.765 103.472 209.524C91.8903 196.342 83.253 179.304 79.6954 171.06C79.2581 170.047 78.9883 168.97 78.8666 167.873L78.56 165.111L79.0509 159.144L84.1203 148.184L100.573 126.587C92.6975 126.898 85.1267 127.396 78.2581 126.824C57.1519 125.068 42.788 106.805 39.6443 101.302C36.5007 95.8001 19.7725 56.6989 18.9866 53.0698C18.358 50.1667 20.072 49.441 21.0076 49.441Z" fill="url(#paint1_radial_1046_3360)"/>
<path d="M128.699 91.117C126.75 94.0902 99.2892 128.117 87.0405 144.394C78.1261 156.241 69.2325 165.653 97.6803 202.761C105.418 212.443 117.088 229.374 124.114 228.24C115.262 225.723 100.226 204.215 88.2491 183.787C83.9194 176.401 82.323 171.872 81.491 166.198C80.8028 161.504 81.5644 156.547 84.563 152.871C90.2581 145.89 98.2481 142.971 103.841 139.766C127.469 127.764 158.167 127.271 179.723 125.487C201.28 123.703 210.452 105.506 213.663 99.9168C216.874 94.3271 233.958 54.6045 234.761 50.9177C235.403 47.9682 233.652 47.2308 232.697 47.2308C218.861 46.5173 187.887 45.6374 174.678 47.8257C158.167 50.5611 152.778 58.1733 149.682 61.7412C146.586 65.3091 130.648 88.1437 128.699 91.117Z" fill="white" fill-opacity="0.82"/>
</g>
<defs>
<filter id="filter0_fn_1046_3360" x="-82.5257" y="-47.7344" width="412.887" height="298.182" filterUnits="userSpaceOnUse" color-interpolation-filters="sRGB">
<feFlood flood-opacity="0" result="BackgroundImageFix"/>
<feBlend mode="normal" in="SourceGraphic" in2="BackgroundImageFix" result="shape"/>
<feGaussianBlur stdDeviation="43.669" result="effect1_foregroundBlur_1046_3360"/>
<feTurbulence type="fractalNoise" baseFrequency="2.6679329872131348 2.6679329872131348" stitchTiles="stitch" numOctaves="3" result="noise" seed="6714" />
<feColorMatrix in="noise" type="luminanceToAlpha" result="alphaNoise" />
<feComponentTransfer in="alphaNoise" result="coloredNoise1">
<feFuncA type="discrete" tableValues="1 1 1 1 1 1 1 1 1 1 1 1 1 1 1 1 1 1 1 1 1 1 1 1 1 1 1 1 1 1 1 1 1 1 1 1 1 1 1 1 1 1 1 1 1 1 1 1 1 1 1 0 0 0 0 0 0 0 0 0 0 0 0 0 0 0 0 0 0 0 0 0 0 0 0 0 0 0 0 0 0 0 0 0 0 0 0 0 0 0 0 0 0 0 0 0 0 0 0 0 "/>
</feComponentTransfer>
<feComposite operator="in" in2="effect1_foregroundBlur_1046_3360" in="coloredNoise1" result="noise1Clipped" />
<feFlood flood-color="rgba(255, 255, 255, 0.25)" result="color1Flood" />
<feComposite operator="in" in2="noise1Clipped" in="color1Flood" result="color1" />
<feMerge result="effect2_noise_1046_3360">
<feMergeNode in="effect1_foregroundBlur_1046_3360" />
<feMergeNode in="color1" />
</feMerge>
</filter>
<linearGradient id="paint0_linear_1046_3360" x1="128.492" y1="87.8877" x2="103.224" y2="163.606" gradientUnits="userSpaceOnUse">
<stop stop-color="#D3E7FD"/>
<stop offset="1" stop-color="#E1CFFC"/>
</linearGradient>
<radialGradient id="paint1_radial_1046_3360" cx="0" cy="0" r="1" gradientUnits="userSpaceOnUse" gradientTransform="translate(124.676 131.571) rotate(107.738) scale(101.555 84.6691)">
<stop stop-color="white" stop-opacity="0"/>
<stop offset="1" stop-color="white"/>
</radialGradient>
<clipPath id="clip0_1046_3360">
<rect width="253" height="154" fill="white"/>
</clipPath>
</defs>
</svg>
