<svg width="147" height="47" viewBox="0 0 147 47" fill="none" xmlns="http://www.w3.org/2000/svg">
<path d="M49.8672 22.0022H44.5686C44.5251 28.649 44.3948 31.8652 44.4817 38.4686C44.5251 41.6834 45.3506 43.3777 46.6973 43.3777C47.3924 43.3777 48.2612 42.8998 49.1736 41.9875L49.4342 43.9424C48.2178 45.3326 46.2194 46.2015 44.3514 46.2015C41.8751 46.2015 39.5726 44.6375 39.6161 40.6407C39.6595 36.2964 39.6595 22.525 39.0513 21.3954C38.6603 20.6569 37.5308 20.8307 36.1406 20.7438L36.1532 19.4601C40.6749 18.6111 41.9936 17.0531 44.4183 11.5844L45.4944 11.5773L45.4075 18.3619V19.9753L49.9106 20.0188L49.8672 22.0022Z" fill="white"/>
<path d="M61.4201 25.6094C61.3766 22.9159 61.3332 19.6577 58.3791 19.6577C55.3381 19.6577 54.9905 25.1315 54.9036 27.2603H59.9865C60.8988 27.2603 61.4201 26.5652 61.4201 25.6094ZM65.8078 29.0414H54.8167C54.8167 30.0406 54.8167 30.9529 54.8167 31.648C54.8167 38.2514 56.3807 42.7694 59.8127 42.7694C62.8537 42.7694 64.939 39.8588 65.33 37.0784L66.5464 37.3391C66.0685 41.6834 62.9406 46.3752 58.1184 46.3752C52.5577 46.3752 49.2995 40.0325 49.2995 31.648C49.2995 23.611 52.7749 18.0938 58.1619 18.0938C62.6365 18.0938 66.0685 20.7872 66.6333 27.4775C66.6767 28.0422 66.3292 29.0414 65.8078 29.0414Z" fill="white"/>
<path d="M66.2833 21.352L66.5874 20.1356C68.4121 19.9618 72.5392 18.8757 74.6244 18.8757L74.581 23.9586C75.8408 21.0479 77.7089 18.5282 80.663 18.4848C83.1393 18.4848 86.0065 20.2659 86.0065 26.2611C86.0065 31.2136 85.8327 41.8571 86.745 43.8121C86.9623 44.2465 87.7877 44.4203 88.3524 44.4637V45.4629H78.7515V44.4637C79.3163 44.4203 80.1417 44.2465 80.3589 43.8121C81.0974 42.2916 81.0106 36.5571 81.0106 34.5587C81.0106 32.43 81.0106 29.1283 80.9237 27.434C80.7065 23.3938 79.2294 22.4815 78.2302 22.4815C75.7105 22.4815 74.7547 27.0865 74.5375 28.9111L74.4941 33.3423V34.5587C74.4941 36.5571 74.4072 42.2916 75.1457 43.8121C75.3629 44.2465 76.1884 44.4203 76.7531 44.4637V45.4629H67.1522V44.4637C67.717 44.4203 68.5424 44.2465 68.7596 43.8121C69.4981 42.2916 69.4112 36.5571 69.4112 34.5587C69.4112 28.6939 69.5416 23.611 68.7162 21.6127C68.5424 21.352 68.3252 21.2651 68.0211 21.2651C67.4563 21.2651 66.8047 21.5692 66.2833 21.352Z" fill="white"/>
<path d="M86.9018 21.352L87.2059 20.1356C89.0306 19.9618 93.1576 18.8757 95.2429 18.8757L95.1995 23.9586C96.4593 21.0479 98.3274 18.5282 101.282 18.4848C103.758 18.4848 106.625 20.2659 106.625 26.2611C106.625 31.2136 106.451 41.8571 107.364 43.8121C107.581 44.2465 108.406 44.4203 108.971 44.4637V45.4629H99.37V44.4637C99.9348 44.4203 100.76 44.2465 100.977 43.8121C101.716 42.2916 101.629 36.5571 101.629 34.5587C101.629 32.43 101.629 29.1283 101.542 27.434C101.325 23.3938 99.8479 22.4815 98.8487 22.4815C96.329 22.4815 95.3732 27.0865 95.156 28.9111L95.1126 33.3423V34.5587C95.1126 36.5571 95.0257 42.2916 95.7642 43.8121C95.9815 44.2465 96.8069 44.4203 97.3716 44.4637V45.4629H87.7707V44.4637C88.3355 44.4203 89.1609 44.2465 89.3781 43.8121C90.1166 42.2916 90.0297 36.5571 90.0297 34.5587C90.0297 28.6939 90.1601 23.611 89.3347 21.6127C89.1609 21.352 88.9437 21.2651 88.6396 21.2651C88.0748 21.2651 87.4232 21.5692 86.9018 21.352Z" fill="white"/>
<path d="M122.458 31.9087C122.458 24.784 121.936 19.3971 118.591 19.3971C115.203 19.3971 114.725 24.8709 114.725 31.9087C114.725 39.0333 115.203 44.9416 118.591 44.9416C121.936 44.9416 122.458 38.9465 122.458 31.9087ZM118.591 18.0503C124.065 18.0503 128.192 22.4815 128.192 31.9087C128.192 41.2055 124.065 46.2883 118.591 46.2883C113.074 46.2883 108.99 41.2055 108.99 31.9087C108.99 22.6118 113.03 18.0503 118.591 18.0503Z" fill="white"/>
<path d="M127.757 21.352L128.061 20.1356C129.886 19.9618 134.013 18.8757 136.098 18.8757L136.055 25.6529C136.837 22.7856 138.487 18.6151 142.093 18.6151C143.874 18.6151 145.308 19.7446 145.873 21.6127C146.698 24.2192 144.96 26.5217 142.962 26.1742C140.051 25.0447 141.224 21.8733 139.878 21.7864C138.14 21.6995 136.228 27.2603 135.968 34.298V34.5587C135.968 36.5571 135.881 42.2916 136.619 43.8121C136.837 44.2465 137.662 44.4203 138.227 44.4637V45.4629H128.8V44.4637C129.364 44.4203 130.016 44.2465 130.233 43.8121C130.972 42.2916 130.885 36.5571 130.885 34.5587C130.885 28.6939 131.015 23.611 130.19 21.6127C130.016 21.352 129.799 21.2651 129.495 21.2651C128.93 21.2651 128.278 21.5692 127.757 21.352Z" fill="white"/>
<path d="M0.459982 0.270654C3.34994 0.122471 9.81954 -0.0602479 12.5785 0.394242C16.0273 0.962362 17.1529 2.54334 17.7996 3.28435C18.4463 4.0255 21.9796 8.70195 22.3867 9.31946C22.7939 9.93704 28.1711 17.4308 30.7896 20.7595C31.595 21.7832 31.8885 22.8719 31.9278 23.8579C31.9926 24.4018 31.9074 25.0268 31.7391 25.66C31.6174 26.1614 31.4611 26.5714 31.3411 26.8442C30.9728 27.7658 30.5134 28.6032 30.1893 29.1109C29.3905 30.5969 25.4908 36.1059 23.9247 37.625C22.3585 39.1441 21.3144 37.9429 20.7924 37.519C20.3747 37.1798 18.7914 35.3051 18.0519 34.4102C15.5811 31.6289 13.8544 27.9992 13.0955 26.2599C13.0022 26.0461 12.9446 25.8189 12.9186 25.5874L12.8532 25.0047L12.958 23.7457L13.9235 21.4678L17.5371 16.5479C15.857 16.6135 14.1382 16.7186 12.673 16.598C8.17049 16.2275 5.10632 12.374 4.43567 11.213C3.76507 10.0521 0.196507 1.80203 0.0288584 1.03631C-0.105235 0.423774 0.260404 0.27066 0.459982 0.270654Z" fill="url(#paint0_radial_888_504)"/>
<path d="M23.2183 9.53803C22.8025 10.1654 17.1825 16.4706 14.6028 20.4665C12.9006 23.1031 10.8084 25.1537 16.877 32.9832C18.5276 35.026 21.0171 38.5984 22.516 38.3591C20.6277 37.8281 17.42 33.29 14.8651 28.9797C13.9415 27.4215 13.6009 26.4658 13.4234 25.2686C13.2766 24.2782 13.4391 23.2324 14.0788 22.4568C15.2937 20.9838 16.9982 20.3679 18.1912 19.6917C23.2317 17.1594 29.7804 17.0553 34.3789 16.6789C38.9774 16.3025 40.9342 12.4632 41.6191 11.2838C42.304 10.1044 45.9486 1.72319 46.1198 0.945291C46.2568 0.322974 45.8834 0.167383 45.6795 0.167377C42.728 0.0168367 36.1205 -0.168814 33.3027 0.292905C29.7804 0.870053 28.6307 2.47617 27.9703 3.22897C27.3099 3.98178 23.6341 8.9107 23.2183 9.53803Z" fill="white"/>
<defs>
<radialGradient id="paint0_radial_888_504" cx="0" cy="0" r="1" gradientUnits="userSpaceOnUse" gradientTransform="translate(15.9748 19.2386) rotate(90) scale(19.1327 15.9748)">
<stop stop-color="white" stop-opacity="0"/>
<stop offset="1" stop-color="white"/>
</radialGradient>
</defs>
</svg>
