<svg width="14" height="14" viewBox="0 0 14 14" fill="none" xmlns="http://www.w3.org/2000/svg">
<path d="M6.825 1.75H2.91667C2.60725 1.75 2.3105 1.87292 2.09171 2.09171C1.87292 2.3105 1.75 2.60725 1.75 2.91667V12.25L4.08333 9.91667H11.0833C11.3928 9.91667 11.6895 9.79375 11.9083 9.57496C12.1271 9.35616 12.25 9.05942 12.25 8.75V7.175M12.25 3.5C12.25 4.4665 11.4665 5.25 10.5 5.25C9.5335 5.25 8.75 4.4665 8.75 3.5C8.75 2.5335 9.5335 1.75 10.5 1.75C11.4665 1.75 12.25 2.5335 12.25 3.5Z" stroke="#1545AC" stroke-width="1.5" stroke-linecap="round" stroke-linejoin="round"/>
</svg>
