<svg width="24" height="24" viewBox="0 0 24 24" fill="none" xmlns="http://www.w3.org/2000/svg">
<rect width="24" height="24" fill="white"/>
<path d="M9.91642 7.83272C10.2637 8.18001 10.9606 8.11908 12.0001 7.26062M12.0001 7.26062C11.8464 7.13365 11.6866 6.9894 11.5215 6.82582C9.9201 5.23893 7.73909 5.54963 6.71724 6.82582C6.01146 7.70728 4.20536 9.90154 8.62602 17.723C8.80905 18.0469 9.17366 18.2512 9.56637 18.2512C10.1929 18.2512 10.6825 17.7512 10.7029 17.1676C10.7461 15.9299 10.9859 14.503 12.0001 14.503C13.0144 14.503 13.2542 15.9299 13.2974 17.1676C13.3177 17.7512 13.8074 18.2512 14.4339 18.2512C14.8266 18.2512 15.1912 18.0469 15.3742 17.723C19.7949 9.90154 17.9888 7.70728 17.283 6.82582C16.2612 5.54963 14.0801 5.23893 12.4787 6.82582C12.3136 6.9894 12.1539 7.13365 12.0001 7.26062Z" stroke="#927DB2" stroke-width="1.5" stroke-linecap="round" stroke-linejoin="round"/>
</svg>
