<svg width="24" height="24" viewBox="0 0 24 24" fill="none" xmlns="http://www.w3.org/2000/svg">
<rect width="24" height="24" fill="white"/>
<path d="M9.99992 12H10.0066M13.9999 12H14.0066M10.6666 14.6667C10.9999 14.8667 11.4666 15 11.9999 15C12.5333 15 12.9999 14.8667 13.3333 14.6667M16.6666 8.2C17.2706 8.95711 17.6823 9.84918 17.8666 10.8C18.092 10.9092 18.2821 11.0796 18.4152 11.2919C18.5482 11.5041 18.6187 11.7495 18.6187 12C18.6187 12.2505 18.5482 12.4959 18.4152 12.7081C18.2821 12.9203 18.092 13.0908 17.8666 13.2C17.5788 14.5423 16.8394 15.7454 15.7717 16.6084C14.7041 17.4714 13.3727 17.9421 11.9999 17.9421C10.6271 17.9421 9.29578 17.4714 8.22813 16.6084C7.16047 15.7454 6.42106 14.5423 6.13325 13.2C5.90782 13.0908 5.71771 12.9203 5.58468 12.7081C5.45166 12.4959 5.3811 12.2505 5.3811 12C5.3811 11.7495 5.45166 11.5041 5.58468 11.2919C5.71771 11.0796 5.90782 10.9092 6.13325 10.8C6.40943 9.447 7.14385 8.23068 8.2126 7.35624C9.28136 6.48181 10.619 6.00279 11.9999 6C13.3333 6 14.3333 6.73333 14.3333 7.66667C14.3333 8.6 13.7333 9.33333 12.9999 9.33333C12.4666 9.33333 11.9999 9.06667 11.9999 8.66667" stroke="#927DB2" stroke-width="1.5" stroke-linecap="round" stroke-linejoin="round"/>
</svg>
