<svg width="24" height="24" viewBox="0 0 24 24" fill="none" xmlns="http://www.w3.org/2000/svg">
<rect width="24" height="24" fill="white"/>
<path d="M6 8.66667V7.33333C6 6.97971 6.14048 6.64057 6.39052 6.39052C6.64057 6.14048 6.97971 6 7.33333 6H8.66667M15.3333 6H16.6667C17.0203 6 17.3594 6.14048 17.6095 6.39052C17.8595 6.64057 18 6.97971 18 7.33333V8.66667M18 15.3333V16.6667C18 17.0203 17.8595 17.3594 17.6095 17.6095C17.3594 17.8595 17.0203 18 16.6667 18H15.3333M8.66667 18H7.33333C6.97971 18 6.64057 17.8595 6.39052 17.6095C6.14048 17.3594 6 17.0203 6 16.6667V15.3333M14 12C14 13.1046 13.1046 14 12 14C10.8954 14 10 13.1046 10 12C10 10.8954 10.8954 10 12 10C13.1046 10 14 10.8954 14 12Z" stroke="#927DB2" stroke-width="1.5" stroke-linecap="round" stroke-linejoin="round"/>
</svg>
