<svg width="9" height="12" viewBox="0 0 9 12" fill="none" xmlns="http://www.w3.org/2000/svg">
<path d="M2.25 10.9577C2.25 11.5334 1.78336 12 1.20773 12L1.04227 12C0.466639 12 1.79608e-07 11.5334 2.06342e-07 10.9577L6.66849e-07 1.04227C6.93583e-07 0.466639 0.466639 7.1244e-09 1.04227 4.8248e-09L1.20773 4.16377e-09C1.78336 1.86417e-09 2.25 0.466639 2.25 1.04227L2.25 10.9577Z" fill="#EFE6F2"/>
<path d="M9 10.9577C9 11.5334 8.53336 12 7.95773 12L7.79227 12C7.21664 12 6.75 11.5334 6.75 10.9577L6.75 1.04227C6.75 0.466639 7.21664 7.1244e-09 7.79227 4.8248e-09L7.95773 4.16377e-09C8.53336 1.86417e-09 9 0.466639 9 1.04227L9 10.9577Z" fill="#EFE6F2"/>
</svg>
