<svg width="14" height="14" viewBox="0 0 14 14" fill="none" xmlns="http://www.w3.org/2000/svg">
<path d="M8.20551 1.11829C9.4044 1.24461 10.5243 1.77636 11.3799 2.62558C12.2356 3.4748 12.7757 4.59063 12.9111 5.78854M8.20551 3.47106C8.78401 3.58513 9.31485 3.87046 9.72916 4.29001C10.1435 4.70955 10.4221 5.24395 10.5289 5.82383M12.8817 9.89419V11.6588C12.8823 11.8226 12.8488 11.9847 12.7831 12.1348C12.7175 12.2849 12.6213 12.4196 12.5005 12.5304C12.3798 12.6411 12.2373 12.7254 12.0822 12.7779C11.927 12.8304 11.7625 12.8499 11.5994 12.8352C9.78942 12.6385 8.05082 12.02 6.52328 11.0294C5.10211 10.1263 3.8972 8.92142 2.99412 7.50024C2.00006 5.96577 1.38144 4.21871 1.18837 2.4006C1.17367 2.23795 1.193 2.07402 1.24513 1.91924C1.29726 1.76447 1.38104 1.62224 1.49115 1.50162C1.60126 1.381 1.73527 1.28463 1.88467 1.21864C2.03406 1.15266 2.19556 1.1185 2.35887 1.11834H4.12345C4.40891 1.11553 4.68564 1.21662 4.90208 1.40275C5.11852 1.58889 5.25989 1.84738 5.29984 2.13004C5.37432 2.69474 5.51244 3.24921 5.71158 3.78286C5.79071 3.99339 5.80784 4.22219 5.76093 4.44215C5.71402 4.66212 5.60503 4.86402 5.44689 5.02395L4.69988 5.77095C5.53721 7.24352 6.75647 8.46279 8.22904 9.30011L8.97605 8.55311C9.13597 8.39496 9.33788 8.28598 9.55784 8.23907C9.77781 8.19216 10.0066 8.20928 10.2171 8.28842C10.7508 8.48755 11.3053 8.62568 11.87 8.70016C12.1557 8.74047 12.4166 8.88438 12.6032 9.10454C12.7897 9.32469 12.8888 9.60572 12.8817 9.89419Z" stroke="#1545AC" stroke-width="1.5" stroke-linecap="round" stroke-linejoin="round"/>
</svg>
