<svg width="18" height="18" viewBox="0 0 18 18" fill="none" xmlns="http://www.w3.org/2000/svg">
<g clip-path="url(#clip0_863_3123)">
<path d="M11.9461 1.49329V5.97314M11.9461 5.97314H16.4259M11.9461 5.97314L16.4259 1.49329M16.426 12.6333V14.8732C16.4268 15.0811 16.3842 15.287 16.3009 15.4775C16.2176 15.668 16.0954 15.8391 15.9422 15.9796C15.789 16.1202 15.6081 16.2272 15.4111 16.2938C15.2141 16.3605 15.0054 16.3852 14.7983 16.3665C12.5008 16.1168 10.2938 15.3317 8.35477 14.0743C6.55076 12.9279 5.02126 11.3985 3.87491 9.59444C2.61307 7.6466 1.8278 5.42891 1.58272 3.12104C1.56406 2.91457 1.5886 2.70647 1.65477 2.51001C1.72094 2.31354 1.8273 2.133 1.96707 1.97989C2.10683 1.82677 2.27695 1.70444 2.46659 1.62068C2.65623 1.53691 2.86123 1.49355 3.06854 1.49336H5.30847C5.67082 1.48979 6.0221 1.61811 6.29685 1.85438C6.57159 2.09066 6.75104 2.41878 6.80176 2.77758C6.8963 3.49441 7.07163 4.19824 7.32441 4.87565C7.42486 5.14289 7.4466 5.43333 7.38705 5.71255C7.3275 5.99177 7.18916 6.24806 6.98842 6.45107L6.04018 7.3993C7.10307 9.26856 8.65078 10.8163 10.52 11.8792L11.4683 10.9309C11.6713 10.7302 11.9276 10.5918 12.2068 10.5323C12.486 10.4727 12.7764 10.4945 13.0437 10.5949C13.7211 10.8477 14.4249 11.023 15.1418 11.1176C15.5045 11.1688 15.8357 11.3514 16.0725 11.6309C16.3093 11.9104 16.4351 12.2671 16.426 12.6333Z" stroke="#46344D" stroke-width="1.5" stroke-linecap="round" stroke-linejoin="round"/>
</g>
<defs>
<clipPath id="clip0_863_3123">
<rect width="17.9194" height="17.9194" fill="white"/>
</clipPath>
</defs>
</svg>
