<svg width="18" height="18" viewBox="0 0 18 18" fill="none" xmlns="http://www.w3.org/2000/svg">
<g clip-path="url(#clip0_863_3129)">
<path d="M16.3335 5.93945V1.48486M16.3335 1.48486H11.8789M16.3335 1.48486L11.8789 5.93945M16.3334 12.562V14.7893C16.3343 14.9961 16.2919 15.2007 16.2091 15.3902C16.1263 15.5796 16.0048 15.7497 15.8524 15.8895C15.7 16.0293 15.5202 16.1357 15.3243 16.2019C15.1284 16.2682 14.9209 16.2928 14.7149 16.2742C12.4304 16.0259 10.2358 15.2453 8.30775 13.9949C6.51391 12.855 4.99304 11.3342 3.85316 9.54032C2.59844 7.60347 1.8176 5.39829 1.5739 3.10344C1.55534 2.89813 1.57974 2.69121 1.64554 2.49585C1.71134 2.30049 1.8171 2.12097 1.95608 1.96872C2.09506 1.81647 2.26421 1.69483 2.45278 1.61154C2.64135 1.52824 2.84519 1.48513 3.05134 1.48494H5.27863C5.63894 1.48139 5.98824 1.60898 6.26143 1.84393C6.53463 2.07887 6.71307 2.40514 6.76349 2.76192C6.8575 3.4747 7.03185 4.17456 7.2832 4.84815C7.38309 5.11388 7.4047 5.40268 7.34549 5.68033C7.28628 5.95797 7.14871 6.21282 6.9491 6.41468L6.00621 7.35757C7.06311 9.21628 8.60209 10.7553 10.4608 11.8122L11.4037 10.8693C11.6056 10.6697 11.8604 10.5321 12.138 10.4729C12.4157 10.4137 12.7045 10.4353 12.9702 10.5352C13.6438 10.7865 14.3437 10.9609 15.0565 11.0549C15.4171 11.1058 15.7465 11.2874 15.9819 11.5653C16.2174 11.8432 16.3425 12.1979 16.3334 12.562Z" stroke="#46344D" stroke-width="1.5" stroke-linecap="round" stroke-linejoin="round"/>
</g>
<defs>
<clipPath id="clip0_863_3129">
<rect width="17.8184" height="17.8184" fill="white"/>
</clipPath>
</defs>
</svg>
