<svg width="19" height="19" viewBox="0 0 19 19" fill="none" xmlns="http://www.w3.org/2000/svg">
<path d="M13.6017 10.5791L16.6243 13.6017M16.6243 13.6017L13.6017 16.6243M16.6243 13.6017H12.0595C11.5642 13.5967 11.0777 13.47 10.6429 13.2328C10.2081 12.9956 9.8382 12.6552 9.5658 12.2415L9.29452 11.9015M13.6017 1.51123L16.6243 4.53385M16.6243 4.53385L13.6017 7.55648M16.6243 4.53385L12.1108 4.53392C11.6223 4.53059 11.1402 4.64571 10.7059 4.86944C10.2716 5.09317 9.89805 5.41883 9.61715 5.81854L5.4958 12.3172C5.21491 12.7169 4.84131 13.0426 4.40702 13.2663C3.97272 13.49 3.49066 13.6051 3.00214 13.6018H1.51123M1.51123 4.53393H3.00138C3.56469 4.53001 4.11789 4.68358 4.59857 4.97733C5.07924 5.27107 5.46826 5.6933 5.72175 6.19637" stroke="#46344D" stroke-width="1.51131" stroke-linecap="round" stroke-linejoin="round"/>
</svg>
