<svg width="16" height="16" viewBox="0 0 16 16" fill="none" xmlns="http://www.w3.org/2000/svg">
<g clip-path="url(#clip0_606_402)">
<path d="M1.37468 8.23208C1.31912 8.0824 1.31912 7.91776 1.37468 7.76808C1.91581 6.45598 2.83435 5.3341 4.01386 4.54468C5.19336 3.75525 6.58071 3.33382 8.00001 3.33382C9.41932 3.33382 10.8067 3.75525 11.9862 4.54468C13.1657 5.3341 14.0842 6.45598 14.6253 7.76808C14.6809 7.91776 14.6809 8.0824 14.6253 8.23208C14.0842 9.54418 13.1657 10.6661 11.9862 11.4555C10.8067 12.2449 9.41932 12.6663 8.00001 12.6663C6.58071 12.6663 5.19336 12.2449 4.01386 11.4555C2.83435 10.6661 1.91581 9.54418 1.37468 8.23208Z" stroke="#46344D" stroke-width="1.5" stroke-linecap="round" stroke-linejoin="round"/>
<path d="M8 10C9.10457 10 10 9.10457 10 8C10 6.89543 9.10457 6 8 6C6.89543 6 6 6.89543 6 8C6 9.10457 6.89543 10 8 10Z" stroke="#46344D" stroke-width="1.5" stroke-linecap="round" stroke-linejoin="round"/>
</g>
<defs>
<clipPath id="clip0_606_402">
<rect width="16" height="16" fill="white"/>
</clipPath>
</defs>
</svg>
