<svg width="16" height="16" viewBox="0 0 16 16" fill="none" xmlns="http://www.w3.org/2000/svg">
<path d="M9.33299 1.33334V5.33334C9.3329 5.55699 9.38906 5.77708 9.49632 5.97334L13.1697 12.6933C13.2808 12.8964 13.3371 13.1249 13.3331 13.3564C13.3291 13.5878 13.2649 13.8142 13.1469 14.0133C13.0288 14.2125 12.8609 14.3774 12.6598 14.492C12.4586 14.6065 12.2311 14.6667 11.9997 14.6667H3.99966C3.76818 14.6667 3.54067 14.6065 3.33952 14.492C3.13837 14.3774 2.97051 14.2125 2.85245 14.0133C2.73439 13.8142 2.67021 13.5878 2.66621 13.3564C2.66222 13.1249 2.71855 12.8964 2.82966 12.6933L6.50299 5.97334C6.61025 5.77708 6.66642 5.55699 6.66632 5.33334V1.33334M4.30159 10H11.6976M5.66634 1.33334H10.333" stroke="#46344D" stroke-width="1.5" stroke-linecap="round" stroke-linejoin="round"/>
</svg>
