<svg width="397" height="478" viewBox="0 0 397 478" fill="none" xmlns="http://www.w3.org/2000/svg">
<g clip-path="url(#clip0_933_2718)">
<path d="M203 -21.1445L203 522.492" stroke="url(#paint0_linear_933_2718)" stroke-linecap="round" stroke-dasharray="2 2"/>
<g filter="url(#filter0_d_933_2718)">
<rect x="151.746" y="195.247" width="102" height="102" rx="10" fill="url(#paint1_radial_933_2718)"/>
<rect x="152.355" y="195.855" width="100.783" height="100.783" rx="9.39159" stroke="url(#paint2_linear_933_2718)" stroke-width="1.21683"/>
<path d="M212.747 249.58L219.413 256.247M219.413 256.247L212.747 262.913M219.413 256.247H209.345C208.253 256.235 207.18 255.956 206.221 255.433C205.262 254.91 204.446 254.159 203.845 253.247L203.247 252.497M212.747 229.58L219.413 236.247M219.413 236.247L212.747 242.913M219.413 236.247L209.458 236.247C208.381 236.239 207.318 236.493 206.36 236.987C205.402 237.48 204.578 238.198 203.958 239.08L194.868 253.413C194.249 254.295 193.425 255.013 192.467 255.507C191.509 256 190.446 256.254 189.368 256.247H186.08M186.08 236.247H189.367C190.609 236.238 191.829 236.577 192.889 237.225C193.95 237.873 194.808 238.804 195.367 239.913" stroke="white" stroke-width="2" stroke-linecap="round" stroke-linejoin="round"/>
</g>
</g>
<defs>
<filter id="filter0_d_933_2718" x="115.446" y="158.947" width="174.6" height="174.6" filterUnits="userSpaceOnUse" color-interpolation-filters="sRGB">
<feFlood flood-opacity="0" result="BackgroundImageFix"/>
<feColorMatrix in="SourceAlpha" type="matrix" values="0 0 0 0 0 0 0 0 0 0 0 0 0 0 0 0 0 0 127 0" result="hardAlpha"/>
<feOffset/>
<feGaussianBlur stdDeviation="18.15"/>
<feComposite in2="hardAlpha" operator="out"/>
<feColorMatrix type="matrix" values="0 0 0 0 0.732712 0 0 0 0 0.508968 0 0 0 0 0.858567 0 0 0 1 0"/>
<feBlend mode="normal" in2="BackgroundImageFix" result="effect1_dropShadow_933_2718"/>
<feBlend mode="normal" in="SourceGraphic" in2="effect1_dropShadow_933_2718" result="shape"/>
</filter>
<linearGradient id="paint0_linear_933_2718" x1="201.829" y1="-70.1935" x2="205.017" y2="458.394" gradientUnits="userSpaceOnUse">
<stop stop-color="#5C4267" stop-opacity="0"/>
<stop offset="0.490385" stop-color="white"/>
<stop offset="1" stop-color="#5C4267"/>
</linearGradient>
<radialGradient id="paint1_radial_933_2718" cx="0" cy="0" r="1" gradientUnits="userSpaceOnUse" gradientTransform="translate(202.746 246.247) rotate(90) scale(51)">
<stop stop-color="#302236"/>
<stop offset="1" stop-color="#302236"/>
</radialGradient>
<linearGradient id="paint2_linear_933_2718" x1="202.746" y1="195.247" x2="255.854" y2="268.185" gradientUnits="userSpaceOnUse">
<stop stop-color="white" stop-opacity="0.1"/>
<stop offset="0.5" stop-color="#BB82DB"/>
<stop offset="1" stop-color="white" stop-opacity="0.1"/>
</linearGradient>
<clipPath id="clip0_933_2718">
<rect width="397" height="478" fill="white"/>
</clipPath>
</defs>
</svg>
