<svg width="17" height="18" viewBox="0 0 17 18" fill="none" xmlns="http://www.w3.org/2000/svg">
<path d="M15.6287 16.75V14.35C15.6287 12.0873 15.6287 10.9559 14.8116 10.253C13.9945 9.55002 12.6794 9.55002 10.0492 9.55002L8.18933 11.15L6.3295 9.55002C3.6993 9.55002 2.3842 9.55002 1.5671 10.253C0.75 10.9559 0.75 12.0873 0.75 14.35V16.75" stroke="#46344D" stroke-width="1.5" stroke-linecap="round" stroke-linejoin="round"/>
<path d="M11.9092 9.55002V13.95" stroke="#46344D" stroke-width="1.5" stroke-linecap="round" stroke-linejoin="round"/>
<path d="M4.93503 9.55002V12.75M4.93503 12.75C5.96219 12.75 6.79486 13.4664 6.79486 14.35V15.15M4.93503 12.75C3.90787 12.75 3.0752 13.4664 3.0752 14.35V15.15" stroke="#46344D" stroke-width="1.5" stroke-linecap="round" stroke-linejoin="round"/>
<path d="M11.444 4.35001V3.55C11.444 2.0036 9.9868 0.75 8.18928 0.75C6.39175 0.75 4.93457 2.0036 4.93457 3.55V4.35001C4.93457 5.8964 6.39175 7.15001 8.18928 7.15001C9.9868 7.15001 11.444 5.8964 11.444 4.35001Z" stroke="#46344D" stroke-width="1.5" stroke-linecap="round" stroke-linejoin="round"/>
<path d="M12.6068 14.55C12.6068 14.8814 12.2945 15.15 11.9094 15.15C11.5242 15.15 11.2119 14.8814 11.2119 14.55C11.2119 14.2187 11.5242 13.95 11.9094 13.95C12.2945 13.95 12.6068 14.2187 12.6068 14.55Z" stroke="#46344D" stroke-width="1.5"/>
</svg>
