<svg width="16" height="16" viewBox="0 0 16 16" fill="none" xmlns="http://www.w3.org/2000/svg">
<g clip-path="url(#clip0_606_417)">
<path d="M14.6663 8H13.013C12.7217 7.99938 12.4381 8.09421 12.2058 8.26998C11.9734 8.44575 11.805 8.6928 11.7263 8.97334L10.1597 14.5467C10.1496 14.5813 10.1285 14.6117 10.0997 14.6333C10.0708 14.655 10.0357 14.6667 9.99967 14.6667C9.96361 14.6667 9.92852 14.655 9.89967 14.6333C9.87082 14.6117 9.84977 14.5813 9.83967 14.5467L6.15967 1.45334C6.14958 1.41872 6.12852 1.38831 6.09967 1.36667C6.07082 1.34503 6.03574 1.33334 5.99967 1.33334C5.96361 1.33334 5.92852 1.34503 5.89967 1.36667C5.87083 1.38831 5.84977 1.41872 5.83967 1.45334L4.27301 7.02667C4.19465 7.30611 4.02726 7.55235 3.79625 7.72801C3.56524 7.90368 3.28322 7.99917 2.99301 8H1.33301" stroke="#46344D" stroke-width="1.5" stroke-linecap="round" stroke-linejoin="round"/>
</g>
<defs>
<clipPath id="clip0_606_417">
<rect width="16" height="16" fill="white"/>
</clipPath>
</defs>
</svg>
