<svg width="18" height="18" viewBox="0 0 18 18" fill="none" xmlns="http://www.w3.org/2000/svg">
<path d="M6.08333 3.41652C6.52778 3.86096 7.41963 3.78299 8.75 2.68436M8.75 2.68436C8.55323 2.52187 8.34877 2.33725 8.13751 2.12791C6.08804 0.0970534 3.29684 0.494672 1.98911 2.12791C1.08586 3.25598 -1.22554 6.06414 4.43191 16.0739C4.66614 16.4883 5.13276 16.7499 5.63534 16.7499C6.43711 16.7499 7.06374 16.1099 7.08981 15.3631C7.1451 13.7791 7.45199 11.953 8.75 11.953C10.048 11.953 10.3549 13.7791 10.4102 15.3631C10.4363 16.1099 11.0629 16.7499 11.8647 16.7499C12.3672 16.7499 12.8339 16.4883 13.0681 16.0739C18.7255 6.06414 16.4141 3.25598 15.5109 2.12791C14.2032 0.494672 11.412 0.0970534 9.36249 2.12791C9.15123 2.33725 8.94677 2.52187 8.75 2.68436Z" stroke="#46344D" stroke-width="1.5" stroke-linecap="round" stroke-linejoin="round"/>
</svg>
