<svg width="397" height="478" viewBox="0 0 397 478" fill="none" xmlns="http://www.w3.org/2000/svg">
<g clip-path="url(#clip0_933_2711)">
<path d="M203 -21.1445L203 522.492" stroke="url(#paint0_linear_933_2711)" stroke-linecap="round" stroke-dasharray="2 2"/>
<g filter="url(#filter0_d_933_2711)">
<rect x="151.746" y="195.246" width="102" height="102" rx="10" fill="url(#paint1_radial_933_2711)"/>
<rect x="152.355" y="195.855" width="100.783" height="100.783" rx="9.39159" stroke="url(#paint2_linear_933_2711)" stroke-width="1.21683"/>
<path d="M219.412 254.447V259.447C219.414 259.911 219.319 260.37 219.133 260.796C218.947 261.221 218.675 261.603 218.333 261.916C217.991 262.23 217.587 262.469 217.147 262.618C216.707 262.766 216.241 262.822 215.779 262.78C210.651 262.223 205.724 260.47 201.396 257.663C197.369 255.104 193.955 251.69 191.396 247.663C188.579 243.315 186.826 238.365 186.279 233.213C186.238 232.752 186.292 232.288 186.44 231.849C186.588 231.411 186.825 231.008 187.137 230.666C187.449 230.324 187.829 230.051 188.252 229.864C188.675 229.677 189.133 229.58 189.596 229.58H194.596C195.405 229.572 196.189 229.858 196.802 230.386C197.415 230.913 197.816 231.646 197.929 232.447C198.14 234.047 198.532 235.618 199.096 237.13C199.32 237.726 199.369 238.375 199.236 238.998C199.103 239.621 198.794 240.193 198.346 240.647L196.229 242.763C198.602 246.936 202.057 250.391 206.229 252.763L208.346 250.647C208.799 250.198 209.371 249.89 209.994 249.757C210.618 249.624 211.266 249.672 211.862 249.897C213.375 250.461 214.946 250.852 216.546 251.063C217.355 251.177 218.095 251.585 218.623 252.209C219.152 252.833 219.433 253.629 219.412 254.447Z" stroke="white" stroke-width="2" stroke-linecap="round" stroke-linejoin="round"/>
<path d="M209.412 229.58V239.58M209.412 239.58H219.412M209.412 239.58L219.412 229.58" stroke="#E1CFFC" stroke-width="2" stroke-linecap="round" stroke-linejoin="round"/>
</g>
</g>
<defs>
<filter id="filter0_d_933_2711" x="115.446" y="158.946" width="174.6" height="174.6" filterUnits="userSpaceOnUse" color-interpolation-filters="sRGB">
<feFlood flood-opacity="0" result="BackgroundImageFix"/>
<feColorMatrix in="SourceAlpha" type="matrix" values="0 0 0 0 0 0 0 0 0 0 0 0 0 0 0 0 0 0 127 0" result="hardAlpha"/>
<feOffset/>
<feGaussianBlur stdDeviation="18.15"/>
<feComposite in2="hardAlpha" operator="out"/>
<feColorMatrix type="matrix" values="0 0 0 0 0.732712 0 0 0 0 0.508968 0 0 0 0 0.858567 0 0 0 1 0"/>
<feBlend mode="normal" in2="BackgroundImageFix" result="effect1_dropShadow_933_2711"/>
<feBlend mode="normal" in="SourceGraphic" in2="effect1_dropShadow_933_2711" result="shape"/>
</filter>
<linearGradient id="paint0_linear_933_2711" x1="201.829" y1="-70.1935" x2="205.017" y2="458.394" gradientUnits="userSpaceOnUse">
<stop stop-color="#5C4267" stop-opacity="0"/>
<stop offset="0.490385" stop-color="white"/>
<stop offset="1" stop-color="#5C4267"/>
</linearGradient>
<radialGradient id="paint1_radial_933_2711" cx="0" cy="0" r="1" gradientUnits="userSpaceOnUse" gradientTransform="translate(202.746 246.246) rotate(90) scale(51)">
<stop stop-color="#302236"/>
<stop offset="1" stop-color="#302236"/>
</radialGradient>
<linearGradient id="paint2_linear_933_2711" x1="202.746" y1="195.246" x2="255.854" y2="268.185" gradientUnits="userSpaceOnUse">
<stop stop-color="white" stop-opacity="0.1"/>
<stop offset="0.5" stop-color="#BB82DB"/>
<stop offset="1" stop-color="white" stop-opacity="0.1"/>
</linearGradient>
<clipPath id="clip0_933_2711">
<rect width="397" height="478" fill="white"/>
</clipPath>
</defs>
</svg>
