<svg width="32" height="32" viewBox="0 0 32 32" fill="none" xmlns="http://www.w3.org/2000/svg">
<rect width="31.7669" height="31.7669" rx="6.46911" fill="#EFE6F2"/>
<g clip-path="url(#clip0_832_6482)">
<path d="M18.2364 10.0007V13.5303M18.2364 13.5303H21.7661M18.2364 13.5303L21.7661 10.0007M21.7661 18.7778V20.5426C21.7668 20.7065 21.7332 20.8686 21.6676 21.0188C21.6019 21.1689 21.5057 21.3036 21.3849 21.4144C21.2642 21.5251 21.1217 21.6095 20.9665 21.6619C20.8113 21.7144 20.6468 21.7339 20.4837 21.7192C18.6734 21.5225 16.9346 20.9039 15.4068 19.9132C13.9855 19.01 12.7804 17.8049 11.8772 16.3835C10.883 14.8488 10.2643 13.1015 10.0712 11.2832C10.0565 11.1205 10.0758 10.9565 10.1279 10.8017C10.1801 10.6469 10.2639 10.5047 10.374 10.3841C10.4841 10.2634 10.6182 10.167 10.7676 10.101C10.917 10.035 11.0785 10.0009 11.2419 10.0007H13.0067C13.2922 9.99792 13.5689 10.099 13.7854 10.2852C14.0019 10.4713 14.1433 10.7299 14.1832 11.0126C14.2577 11.5773 14.3959 12.1319 14.595 12.6656C14.6742 12.8762 14.6913 13.105 14.6444 13.325C14.5975 13.545 14.4885 13.7469 14.3303 13.9069L13.5832 14.654C14.4206 16.1268 15.6401 17.3462 17.1128 18.1836L17.86 17.4365C18.0199 17.2784 18.2218 17.1694 18.4418 17.1225C18.6618 17.0755 18.8907 17.0927 19.1012 17.1718C19.6349 17.371 20.1895 17.5091 20.7543 17.5836C21.04 17.6239 21.301 17.7679 21.4876 17.988C21.6741 18.2082 21.7733 18.4893 21.7661 18.7778Z" stroke="#1545AC" stroke-width="1.32362" stroke-linecap="round" stroke-linejoin="round"/>
</g>
<defs>
<clipPath id="clip0_832_6482">
<rect width="14.1186" height="14.1186" fill="white" transform="translate(8.82422 8.82413)"/>
</clipPath>
</defs>
</svg>
