<svg width="50" height="42" viewBox="0 0 50 42" fill="none" xmlns="http://www.w3.org/2000/svg">
<path d="M0.49368 0.293513C3.59536 0.132715 10.5389 -0.0655572 13.5001 0.42762C17.2015 1.0441 18.4096 2.75966 19.1036 3.56375C19.7977 4.36798 23.5898 9.44252 24.0268 10.1126C24.4638 10.7827 30.2349 18.9145 33.0453 22.5264C33.9097 23.6373 34.2247 24.8187 34.2668 25.8886C34.3364 26.4788 34.2449 27.157 34.0644 27.8441C33.9337 28.3882 33.766 28.8331 33.6372 29.1291C33.2419 30.1291 32.7488 31.0378 32.401 31.5887C31.5436 33.2013 27.3583 39.1792 25.6774 40.8276C23.9965 42.476 22.8759 41.1726 22.3156 40.7125C21.8674 40.3445 20.168 38.3102 19.3744 37.3391C16.7226 34.3211 14.745 30.4201 13.9305 28.5328C13.8304 28.3007 13.7686 28.0542 13.7407 27.803L13.6705 27.1707L13.7829 25.8045L14.9436 23.295L18.7106 17.9563C16.9074 18.0276 15.174 18.1416 13.6014 18.0107C8.76906 17.6087 5.48041 13.4272 4.76063 12.1674C4.04091 10.9076 0.210903 1.95525 0.0309726 1.12435C-0.112944 0.459666 0.279481 0.293519 0.49368 0.293513Z" fill="url(#paint0_radial_910_1130)"/>
<path d="M25.2152 10.2295C24.7689 10.9103 18.4818 18.7007 15.6774 22.4276C13.6364 25.14 11.6002 27.2948 18.1134 35.7909C19.8849 38.0075 22.5568 41.8841 24.1655 41.6244C22.1389 41.0482 18.6961 36.1238 15.9541 31.4466C14.9628 29.7558 14.5973 28.7187 14.4068 27.4195C14.2492 26.3449 14.4236 25.2101 15.1101 24.3684C16.4141 22.77 18.2434 22.1017 19.5239 21.368C24.9336 18.6201 31.9621 18.5071 36.8975 18.0986C41.8329 17.6902 43.9331 13.5241 44.6681 12.2443C45.4032 10.9645 49.3148 1.86987 49.4985 1.02576C49.6456 0.350467 49.2448 0.181631 49.026 0.181625C45.8582 0.0182699 38.7666 -0.183184 35.7424 0.317838C31.9621 0.944116 30.7282 2.68695 30.0194 3.50384C29.3106 4.32072 25.6615 9.5488 25.2152 10.2295Z" fill="white"/>
<defs>
<radialGradient id="paint0_radial_910_1130" cx="0" cy="0" r="1" gradientUnits="userSpaceOnUse" gradientTransform="translate(17.1451 21.073) rotate(90) scale(20.5643 17.1451)">
<stop stop-color="white" stop-opacity="0.31"/>
<stop offset="1" stop-color="white"/>
</radialGradient>
</defs>
</svg>
