<svg width="50" height="50" viewBox="0 0 50 50" fill="none" xmlns="http://www.w3.org/2000/svg">
<rect x="0.5" y="0.5" width="48.7939" height="48.7939" fill="url(#paint0_radial_523_1550)"/>
<rect x="0.5" y="0.5" width="48.7939" height="48.7939" stroke="#1545AC"/>
<path d="M7.97992 11.975C10.1638 11.8618 15.0527 11.7222 17.1376 12.0694C19.7437 12.5035 20.5943 13.7114 21.083 14.2776C21.5717 14.8438 24.2417 18.4168 24.5494 18.8886C24.8571 19.3604 28.9204 24.8085 30.8992 27.3517C31.5078 28.1339 31.7296 28.9657 31.7593 29.719C31.8083 30.1346 31.7439 30.6121 31.6167 31.0959C31.5247 31.4789 31.4066 31.7922 31.3159 32.0006C31.0376 32.7048 30.6905 33.3446 30.4456 33.7325C29.8419 34.8678 26.8951 39.0769 25.7116 40.2375C24.5281 41.3981 23.7391 40.4804 23.3446 40.1565C23.029 39.8974 21.8324 38.465 21.2736 37.7813C19.4065 35.6563 18.0142 32.9096 17.4407 31.5808C17.3702 31.4174 17.3267 31.2438 17.3071 31.067L17.2576 30.6217L17.3368 29.6598L18.154 27.8929L20.8063 24.4113C19.5367 24.4615 18.3162 24.5418 17.209 24.4496C13.8065 24.1666 11.491 21.2224 10.9842 20.3353C10.4775 19.4483 7.78082 13.145 7.65413 12.56C7.5528 12.092 7.8291 11.975 7.97992 11.975Z" fill="url(#paint1_radial_523_1550)"/>
<path d="M25.3868 18.6933C25.0726 19.1726 20.6458 24.6579 18.6713 27.2819C17.2343 29.1917 15.8006 30.7089 20.3865 36.691C21.6338 38.2517 23.515 40.9811 24.6477 40.7983C23.2208 40.3926 20.7968 36.9253 18.8661 33.6322C18.1682 32.4416 17.9108 31.7114 17.7767 30.7967C17.6658 30.0401 17.7885 29.241 18.2719 28.6485C19.19 27.523 20.478 27.0524 21.3796 26.5358C25.1885 24.6011 30.1372 24.5215 33.6122 24.2339C37.0872 23.9463 38.5659 21.013 39.0834 20.1119C39.601 19.2108 42.3551 12.8073 42.4845 12.213C42.588 11.7375 42.3058 11.6186 42.1517 11.6186C39.9213 11.5036 34.9282 11.3617 32.7989 11.7145C30.1372 12.1555 29.2684 13.3826 28.7694 13.9578C28.2703 14.5329 25.701 18.214 25.3868 18.6933Z" fill="white"/>
<defs>
<radialGradient id="paint0_radial_523_1550" cx="0" cy="0" r="1" gradientUnits="userSpaceOnUse" gradientTransform="translate(24.897 24.897) rotate(92.0343) scale(31.5541)">
<stop stop-color="#1B263F"/>
<stop offset="1" stop-color="#0B3590"/>
</radialGradient>
<radialGradient id="paint1_radial_523_1550" cx="0" cy="0" r="1" gradientUnits="userSpaceOnUse" gradientTransform="translate(19.704 26.3284) rotate(90) scale(14.4793 12.0717)">
<stop stop-color="white" stop-opacity="0"/>
<stop offset="1" stop-color="white" stop-opacity="0.49"/>
</radialGradient>
</defs>
</svg>
