<svg width="145" height="47" viewBox="0 0 145 47" fill="none" xmlns="http://www.w3.org/2000/svg">
<path d="M49.9692 22.2224H44.7422C44.6994 28.7793 44.5708 31.952 44.6565 38.4661C44.6994 41.6374 45.5136 43.3088 46.8422 43.3088C47.5278 43.3088 48.385 42.8374 49.2849 41.9374L49.5421 43.8659C48.3421 45.2373 46.3707 46.0944 44.5279 46.0944C42.0852 46.0944 39.8138 44.5516 39.8567 40.6089C39.8995 36.3233 39.8995 22.7381 39.2996 21.6238C38.9139 20.8953 37.7996 21.0667 36.4282 20.981L36.4406 19.7146C40.9011 18.8771 42.2021 17.3402 44.5939 11.9454L45.6555 11.9384L45.5698 18.6313V20.2229L50.0121 20.2658L49.9692 22.2224Z" fill="#46344D"/>
<path d="M61.3659 25.7808C61.323 23.1237 61.2802 19.9096 58.366 19.9096C55.3661 19.9096 55.0232 25.3094 54.9375 27.4093H59.9516C60.8516 27.4093 61.3659 26.7236 61.3659 25.7808ZM65.6943 29.1664H54.8518C54.8518 30.1521 54.8518 31.0521 54.8518 31.7377C54.8518 38.2518 56.3946 42.7088 59.7802 42.7088C62.7801 42.7088 64.8372 39.8375 65.2229 37.0947L66.4229 37.3518C65.9514 41.6374 62.8658 46.2658 58.1088 46.2658C52.6233 46.2658 49.4091 40.0089 49.4091 31.7377C49.4091 23.8094 52.8376 18.3668 58.1517 18.3668C62.5658 18.3668 65.9514 21.0238 66.5086 27.6236C66.5514 28.1807 66.2086 29.1664 65.6943 29.1664Z" fill="#46344D"/>
<path d="M66.1634 21.5809L66.4634 20.381C68.2633 20.2096 72.3346 19.1382 74.3917 19.1382L74.3488 24.1523C75.5916 21.281 77.4344 18.7953 80.3486 18.7525C82.7914 18.7525 85.6199 20.5096 85.6199 26.4236C85.6199 31.3092 85.4484 41.8088 86.3484 43.7373C86.5627 44.1659 87.3769 44.3373 87.9341 44.3802V45.3659H78.463V44.3802C79.0201 44.3373 79.8343 44.1659 80.0486 43.7373C80.7772 42.2374 80.6915 36.5804 80.6915 34.6091C80.6915 32.5091 80.6915 29.2521 80.6057 27.5807C80.3915 23.5952 78.9344 22.6952 77.9487 22.6952C75.4631 22.6952 74.5202 27.2379 74.306 29.0378L74.2631 33.4091V34.6091C74.2631 36.5804 74.1774 42.2374 74.9059 43.7373C75.1202 44.1659 75.9345 44.3373 76.4916 44.3802V45.3659H67.0205V44.3802C67.5776 44.3373 68.3919 44.1659 68.6061 43.7373C69.3347 42.2374 69.249 36.5804 69.249 34.6091C69.249 28.8236 69.3776 23.8094 68.5633 21.8381C68.3919 21.5809 68.1776 21.4952 67.8776 21.4952C67.3205 21.4952 66.6776 21.7952 66.1634 21.5809Z" fill="#46344D"/>
<path d="M86.5031 21.5809L86.8031 20.381C88.603 20.2096 92.6743 19.1382 94.7314 19.1382L94.6885 24.1523C95.9313 21.281 97.7741 18.7953 100.688 18.7525C103.131 18.7525 105.96 20.5096 105.96 26.4236C105.96 31.3092 105.788 41.8088 106.688 43.7373C106.902 44.1659 107.717 44.3373 108.274 44.3802V45.3659H98.8027V44.3802C99.3598 44.3373 100.174 44.1659 100.388 43.7373C101.117 42.2374 101.031 36.5804 101.031 34.6091C101.031 32.5091 101.031 29.2521 100.945 27.5807C100.731 23.5952 99.2741 22.6952 98.2884 22.6952C95.8028 22.6952 94.8599 27.2379 94.6457 29.0378L94.6028 33.4091V34.6091C94.6028 36.5804 94.5171 42.2374 95.2456 43.7373C95.4599 44.1659 96.2742 44.3373 96.8313 44.3802V45.3659H87.3602V44.3802C87.9173 44.3373 88.7316 44.1659 88.9459 43.7373C89.6744 42.2374 89.5887 36.5804 89.5887 34.6091C89.5887 28.8236 89.7173 23.8094 88.903 21.8381C88.7316 21.5809 88.5173 21.4952 88.2173 21.4952C87.6602 21.4952 87.0174 21.7952 86.5031 21.5809Z" fill="#46344D"/>
<path d="M121.578 31.9949C121.578 24.9665 121.064 19.6524 117.764 19.6524C114.421 19.6524 113.95 25.0523 113.95 31.9949C113.95 39.0232 114.421 44.8516 117.764 44.8516C121.064 44.8516 121.578 38.9375 121.578 31.9949ZM117.764 18.3239C123.164 18.3239 127.235 22.6952 127.235 31.9949C127.235 41.166 123.164 46.1801 117.764 46.1801C112.321 46.1801 108.293 41.166 108.293 31.9949C108.293 22.8238 112.278 18.3239 117.764 18.3239Z" fill="#46344D"/>
<path d="M126.806 21.5809L127.106 20.381C128.906 20.2096 132.977 19.1382 135.034 19.1382L134.991 25.8237C135.763 22.9952 137.391 18.881 140.948 18.881C142.705 18.881 144.12 19.9953 144.677 21.8381C145.491 24.4094 143.777 26.6808 141.805 26.3379C138.934 25.2237 140.091 22.0952 138.763 22.0095C137.048 21.9238 135.163 27.4093 134.906 34.3519V34.6091C134.906 36.5804 134.82 42.2374 135.548 43.7373C135.763 44.1659 136.577 44.3373 137.134 44.3802V45.3659H127.834V44.3802C128.392 44.3373 129.034 44.1659 129.249 43.7373C129.977 42.2374 129.891 36.5804 129.891 34.6091C129.891 28.8236 130.02 23.8094 129.206 21.8381C129.034 21.5809 128.82 21.4952 128.52 21.4952C127.963 21.4952 127.32 21.7952 126.806 21.5809Z" fill="#46344D"/>
<path d="M0.453762 0.266947C3.30465 0.120767 9.68676 -0.0594813 12.4085 0.388863C15.8106 0.949301 16.921 2.5089 17.5589 3.2399C18.1969 3.97102 21.6824 8.58424 22.084 9.1934C22.4857 9.80263 27.7902 17.1951 30.3733 20.4787C31.1678 21.4886 31.4573 22.5626 31.4961 23.5352C31.56 24.0718 31.4759 24.6883 31.31 25.313C31.1899 25.8076 31.0357 26.2121 30.9173 26.4812C30.554 27.3903 30.1008 28.2164 29.7811 28.7172C28.9931 30.1832 25.1462 35.6176 23.6012 37.1162C22.0562 38.6147 21.0262 37.4298 20.5112 37.0116C20.0992 36.677 18.5373 34.8277 17.8078 33.9448C15.3704 31.2011 13.6671 27.6206 12.9184 25.9048C12.8264 25.6938 12.7696 25.4697 12.744 25.2414L12.6794 24.6665L12.7828 23.4245L13.7353 21.1775L17.3 16.3241C15.6426 16.3889 13.9471 16.4925 12.5016 16.3736C8.06001 16.0081 5.03727 12.2067 4.37569 11.0614C3.71417 9.91615 0.19385 1.77762 0.0284682 1.02225C-0.103812 0.417996 0.256883 0.266953 0.453762 0.266947Z" fill="url(#paint0_radial_910_264)"/>
<path d="M22.9042 9.40907C22.494 10.0279 16.95 16.2479 14.4051 20.1898C12.726 22.7907 10.6621 24.8135 16.6487 32.5372C18.277 34.5524 20.7328 38.0765 22.2114 37.8405C20.3486 37.3166 17.1843 32.8399 14.664 28.5879C13.7528 27.0508 13.4169 26.108 13.2418 24.9269C13.097 23.95 13.2572 22.9183 13.8883 22.1532C15.0867 20.7 16.7682 20.0925 17.9451 19.4255C22.9174 16.9274 29.3775 16.8246 33.9139 16.4533C38.4502 16.082 40.3806 12.2946 41.0562 11.1312C41.7318 9.96776 45.3271 1.69989 45.4961 0.932509C45.6312 0.318607 45.2628 0.16512 45.0617 0.165114C42.1501 0.016609 35.6319 -0.166531 32.8522 0.288944C29.3775 0.858289 28.2434 2.44269 27.592 3.18531C26.9405 3.92794 23.3144 8.79022 22.9042 9.40907Z" fill="#46344D"/>
<defs>
<radialGradient id="paint0_radial_910_264" cx="0" cy="0" r="1" gradientUnits="userSpaceOnUse" gradientTransform="translate(15.7588 18.9784) rotate(90) scale(18.874 15.7588)">
<stop stop-color="#E1CFFC"/>
<stop offset="1" stop-color="#46344D"/>
</radialGradient>
</defs>
</svg>
