<svg width="16" height="16" viewBox="0 0 16 16" fill="none" xmlns="http://www.w3.org/2000/svg">
<path d="M6.66602 1.33334H9.33268M7.99935 9.33334V6.66668M2.66602 8.66668C2.82926 7.37066 3.46245 6.17962 4.44551 5.31944C5.42857 4.45926 6.69313 3.98977 7.99935 4.00001C8.86205 4.00093 9.71165 4.21111 10.4753 4.61252C11.2389 5.01393 11.8937 5.59459 12.3836 6.30469C12.8735 7.01479 13.1839 7.83314 13.288 8.68953C13.3922 9.54592 13.287 10.4148 12.9816 11.2216C12.6761 12.0284 12.1795 12.7491 11.5344 13.3218C10.8892 13.8946 10.1147 14.3022 9.27739 14.5099C8.44005 14.7175 7.56484 14.719 6.72684 14.514C5.88883 14.3091 5.11304 13.904 4.46602 13.3333L2.66602 11.7333M5.99935 11.3333H2.66602V14.6667" stroke="#E1CFFC" stroke-width="1.5" stroke-linecap="round" stroke-linejoin="round"/>
</svg>
