<svg width="16" height="16" viewBox="0 0 16 16" fill="none" xmlns="http://www.w3.org/2000/svg">
<g clip-path="url(#clip0_938_1055)">
<path d="M6.66602 1.33337H9.33268M7.99935 9.33337V6.66671M2.66602 8.66671C2.82926 7.37069 3.46245 6.17965 4.44551 5.31947C5.42857 4.45929 6.69313 3.9898 7.99935 4.00004C8.86205 4.00096 9.71165 4.21114 10.4753 4.61255C11.2389 5.01396 11.8937 5.59462 12.3836 6.30472C12.8735 7.01483 13.1839 7.83317 13.288 8.68956C13.3922 9.54595 13.287 10.4148 12.9816 11.2216C12.6761 12.0285 12.1795 12.7491 11.5344 13.3219C10.8892 13.8946 10.1147 14.3023 9.27739 14.5099C8.44005 14.7176 7.56484 14.719 6.72684 14.5141C5.88883 14.3091 5.11304 13.904 4.46602 13.3334L2.66602 11.7334M5.99935 11.3334H2.66602V14.6667" stroke="#46344D" stroke-width="1.5" stroke-linecap="round" stroke-linejoin="round"/>
</g>
<defs>
<clipPath id="clip0_938_1055">
<rect width="16" height="16" fill="white"/>
</clipPath>
</defs>
</svg>
